<svg xmlns="http://www.w3.org/2000/svg" xmlns:xlink="http://www.w3.org/1999/xlink" width="70" height="70"
     viewBox="0 0 70 70">
    <defs>
        <path id="a" d="M4 0h61c4 0 5 1 5 5v60c0 4-1 5-5 5H4c-3 0-4-1-4-5V5c0-4 1-5 4-5z"/>
        <linearGradient id="c" x1="98.162%" x2="0%" y1="1.838%" y2="100%">
            <stop offset="0%" stop-color="#797da5"/>
            <stop offset="50.799%" stop-color="#6d7195"/>
            <stop offset="100%" stop-color="#5b5e7c"/>
        </linearGradient>
    </defs>
    <g fill="none" fill-rule="evenodd">
        <mask id="b" fill="#fff">
            <use xlink:href="#a"/>
        </mask>
        <g mask="url(#b)">
            <path fill="url(#c)" d="M0 0H70V70H0z"/>
            <path fill="#FFF" fill-opacity=".383" d="M4 1h61c2.667 0 4.333.667 5 2V0H0v3c.667-1.333 2-2 4-2z"/>
            <path fill="#000" fill-opacity=".383" d="M4 69h61c2.667 0 4.333-1 5-3v4H0v-4c.667 2 2 3 4 3z"/>
            <g id="svg_7" opacity=".324">
   <rect stroke="null" transform="rotate(45 38.21672821044923,64.86620330810545) " id="svg_5" height="27.66001" width="9.04875" y="51.0362" x="33.69235" stroke-opacity="null" stroke-width="0.10447" fill="#393939"/>
   <rect stroke="null" transform="rotate(45 20.633666992187493,50.26643753051758) " id="svg_3" height="59.61809" width="25.37179" y="20.45739" x="7.94777" stroke-opacity="null" stroke-width="0.10447" fill="#393939"/>
   <rect stroke="null" transform="rotate(45 14.083341598510748,32.75893020629883) " id="svg_2" height="51.72177" width="9.87257" y="6.89805" x="9.14706" stroke-opacity="null" stroke-width="0.10447" fill="#393939"/>
   <rect stroke="null" transform="rotate(45 38.00731277465822,56.39212036132812) " id="svg_4" height="52.85418" width="9.23068" y="29.96503" x="33.39197" stroke-opacity="null" stroke-width="0.10447" fill="#393939"/>
   <rect stroke="null" transform="rotate(45 53.77587890625004,65.36634826660155) " id="svg_7" height="26.4696" width="2.66911" y="52.13154" x="52.44132" stroke-opacity="null" stroke-width="0.10447" fill="#393939"/>
   <rect stroke="null" transform="rotate(45 48.533653259277344,63.34662246704101) " id="svg_8" height="26.4696" width="7.81744" y="50.11182" x="44.62493" stroke-opacity="null" stroke-width="0.10447" fill="#393939"/>
            </g>
  <path stroke="null" fill="#000000" stroke-width="0.10447" d="m55.08594,63.34169c-0.15574,-0.17208 -0.1729,-0.67958 -0.1729,-5.11158c0,-4.33393 0.01957,-4.94011 0.16417,-5.08471c0.28142,-0.28143 0.72915,-0.18785 1.63474,0.34166c0.47579,0.27821 2.22842,1.29607 3.89472,2.26191c1.66631,0.96584 3.13542,1.85118 3.2647,1.96743c0.17241,0.15503 0.23506,0.3275 0.23506,0.64708c0,0.50923 -0.08949,0.60441 -1.0447,1.11106c-0.37348,0.1981 -2.18629,1.19224 -4.02845,2.20919c-1.84217,1.01696 -3.44503,1.84901 -3.56192,1.84901c-0.11689,0 -0.29033,-0.08597 -0.38542,-0.19105zm-41.38646,-1.2098c-1.99439,-0.49418 -3.26066,-2.41666 -2.87682,-4.36766c0.33126,-1.68375 1.43161,-2.78409 3.11536,-3.11535c1.57155,-0.30919 3.30883,0.53656 4.03146,1.96261c1.1785,2.32565 -0.09443,5.0122 -2.62974,5.55014c-0.67434,0.14308 -0.96401,0.13783 -1.64026,-0.02974zm1.30797,-2.83128c0.37302,-0.1929 0.52026,-0.45016 0.52026,-0.90904c0,-0.69793 -0.62322,-1.14341 -1.29118,-0.92296c-0.88954,0.29357 -0.93384,1.53391 -0.06694,1.87406c0.36667,0.14387 0.49029,0.13767 0.83785,-0.04206l0.00001,0zm9.66142,2.72681c-1.99439,-0.49418 -3.26066,-2.41666 -2.87682,-4.36766c0.33126,-1.68375 1.4316,-2.7841 3.11536,-3.11535c1.57155,-0.30919 3.30883,0.53656 4.03146,1.96261c1.1785,2.32565 -0.09443,5.0122 -2.62974,5.55014c-0.67434,0.14308 -0.96401,0.13783 -1.64026,-0.02974zm1.61691,-2.9372c0.37082,-0.3706 0.35901,-0.9942 -0.02612,-1.37933c-0.63081,-0.63081 -1.69052,-0.19549 -1.69052,0.69446c0,0.93232 1.04992,1.35119 1.71664,0.68487zm9.35247,2.9372c-1.99438,-0.49418 -3.26065,-2.41665 -2.87681,-4.36766c0.33126,-1.68375 1.4316,-2.7841 3.11536,-3.11535c1.57155,-0.30919 3.30882,0.53656 4.03146,1.96261c1.1785,2.32565 -0.09443,5.0122 -2.62974,5.55014c-0.67434,0.14308 -0.96401,0.13783 -1.64027,-0.02974zm1.2834,-2.68131c0.889,-0.30991 0.85895,-1.57935 -0.04445,-1.8775c-0.66796,-0.22045 -1.29118,0.22503 -1.29118,0.92296c0,0.45007 0.14431,0.71157 0.49886,0.90398c0.34715,0.18839 0.42748,0.19324 0.83678,0.05056l-0.00001,0zm9.79046,2.68131c-1.99438,-0.49418 -3.26065,-2.41665 -2.87681,-4.36766c0.33126,-1.68375 1.4316,-2.7841 3.11536,-3.11535c1.57155,-0.30919 3.30883,0.53656 4.03146,1.96261c1.1785,2.32565 -0.09443,5.0122 -2.62974,5.55014c-0.67434,0.14308 -0.96401,0.13783 -1.64027,-0.02974zm1.61692,-2.9372c0.37082,-0.3706 0.35901,-0.9942 -0.02612,-1.37933c-0.63081,-0.63081 -1.69052,-0.19549 -1.69052,0.69446c0,0.93232 1.04992,1.35119 1.71664,0.68487zm-40.74107,0.28966c-0.79886,-0.39907 -0.77075,-1.62152 0.04512,-1.96242c0.24458,-0.10219 0.73985,-0.15294 1.49247,-0.15294l1.12641,0l0,1.14917l0,1.14918l-1.14918,-0.00021c-0.88475,-0.00011 -1.2333,-0.0422 -1.51482,-0.18283l0,0.00005zm11.33504,-0.96619l0,-1.14917l1.15943,0l1.15943,0l-0.09899,0.57458c-0.06235,0.36187 -0.06235,0.78731 0,1.14918l0.09899,0.57458l-1.15943,0l-1.15943,0l0,-1.14917zm10.96938,0l0,-1.14917l1.14918,0l1.14917,0l0,1.14917l0,1.14918l-1.14917,0l-1.14918,0l0,-1.14918zm11.04787,0.57459c0.06235,-0.36187 0.06235,-0.78731 0,-1.14917l-0.09899,-0.57459l1.27892,0l1.27891,0l-0.10291,0.444c-0.0566,0.2442 -0.07478,0.76132 -0.0404,1.14917l0.06251,0.70518l-1.23852,0l-1.23851,0l0.09899,-0.57459zm11.10867,-0.13059c0.03439,-0.38785 0.0162,-0.90498 -0.0404,-1.14917l-0.10291,-0.444l0.95525,0.0015c0.5572,0.00097 1.06407,0.05638 1.21642,0.13315c0.23994,0.12091 0.26542,0.20282 0.31341,1.00738l0.05224,0.87576l-0.33618,0.14026c-0.19214,0.08017 -0.71837,0.14026 -1.22825,0.14026l-0.89209,0l0.06251,-0.70514zm-28.64503,-7.02014c-0.4659,-0.04364 -0.889,-0.10522 -0.94023,-0.13683c-0.05123,-0.03161 -0.56326,-0.11171 -1.13785,-0.17801c-1.63385,-0.18852 -3.40116,-0.50571 -3.56217,-0.63934c-0.12428,-0.10314 -0.14652,-2.09509 -0.14652,-13.12224c0,-8.76188 0.03526,-13.06652 0.10814,-13.20271c0.13955,-0.26075 0.55697,-0.25836 1.51115,0.0086c1.55411,0.43491 3.61435,0.66281 6.05928,0.67026c2.23028,0.0068 2.31227,-0.00042 2.76846,-0.24299c0.70889,-0.37696 1.64222,-1.36802 1.73025,-1.83725c0.13002,-0.69306 -0.0043,-1.78205 -0.26027,-2.10975c-1.04014,-1.33174 -1.35776,-1.85922 -1.90765,-3.16816c-0.2081,-0.49537 -0.24076,-0.74745 -0.23684,-1.82824c0.0041,-1.12834 0.03172,-1.31107 0.2765,-1.82823c0.41256,-0.87169 0.84961,-1.40697 1.51681,-1.85773c1.40471,-0.94903 3.16611,-1.32128 4.80177,-1.01478c1.18118,0.22133 1.894,0.56554 2.60137,1.25615c1.26496,1.23501 1.70313,3.01545 1.15262,4.68355c-0.31746,0.96192 -0.86618,1.90926 -1.49991,2.58953c-0.24873,0.26699 -0.49736,0.64278 -0.55251,0.83508c-0.16433,0.57301 -0.12663,3.07887 0.05151,3.42336c0.28138,0.54413 0.38828,0.55426 5.35107,0.50736c4.3856,-0.04145 4.60455,-0.05284 5.19561,-0.27055c0.71986,-0.26515 1.23709,-0.2911 1.41956,-0.07124c0.15804,0.19043 0.05229,1.45813 -0.14821,1.77666c-0.07233,0.11492 -0.16036,0.37348 -0.19561,0.57459c-0.03525,0.2011 -0.16057,0.90628 -0.27849,1.56705c-0.17913,1.00384 -0.21319,1.61706 -0.20705,3.72883l0.0073,2.52741l0.4062,0.62848c0.22341,0.34566 0.60359,0.77146 0.84484,0.94623c0.40039,0.29004 0.51044,0.31774 1.26208,0.31774c0.97894,0 1.22835,-0.09313 2.45179,-0.91551c0.50846,-0.34178 1.30056,-0.79561 1.76023,-1.00852c0.73331,-0.33966 0.96479,-0.39454 1.88821,-0.44765c0.9626,-0.05537 1.12685,-0.03575 1.9241,0.22975c0.76879,0.25603 0.9592,0.37405 1.61348,1.00001c1.37381,1.31433 2.14559,3.03738 1.99972,4.46451c-0.08795,0.86045 -0.49855,2.14572 -0.87427,2.73669c-0.34225,0.53832 -1.39964,1.53966 -1.79339,1.69833c-0.14609,0.05887 -0.43016,0.17898 -0.63127,0.26691c-0.57423,0.25108 -2.37271,0.29671 -3.04373,0.07724c-0.8615,-0.28179 -1.33739,-0.53648 -2.20614,-1.18071c-1.18789,-0.88089 -1.53503,-1.08454 -2.11529,-1.24089c-1.06464,-0.28686 -2.49938,-0.09003 -2.94019,0.40336c-0.67751,0.75835 -0.83769,2.18376 -0.46098,4.10235c0.6207,3.16126 0.67589,3.52242 0.59035,3.86322c-0.08381,0.33394 -0.55779,0.57661 -1.12775,0.57739c-0.24705,0.00031 -0.9193,0.07358 -1.49389,0.16276c-1.88997,0.29334 -4.99485,0.60356 -6.11151,0.61063c-1.64239,0.01039 -2.61864,-0.31041 -3.57752,-1.17559c-0.63888,-0.57645 -0.85951,-1.68888 -0.58755,-2.96245c0.06502,-0.30448 0.20606,-0.66572 0.31341,-0.80275c0.10736,-0.13704 0.19519,-0.30747 0.19519,-0.37876c0,-0.07128 0.3252,-0.53281 0.72267,-1.02562c0.39747,-0.4928 0.75666,-1.00313 0.79822,-1.13404c0.04155,-0.13092 0.15782,-0.35648 0.25838,-0.50123c0.10055,-0.14476 0.24163,-0.62754 0.3135,-1.07285c0.2983,-1.8483 -0.33732,-3.28823 -1.83159,-4.14929c-0.45148,-0.26016 -1.95302,-0.63044 -2.55423,-0.62988c-0.62269,0.00063 -2.41138,0.38811 -2.60651,0.5647c-0.10104,0.09143 -0.24399,0.16625 -0.31768,0.16625c-0.26512,0 -1.15437,0.86055 -1.49094,1.44282c-0.34219,0.59196 -0.34357,0.60003 -0.34357,2.00657c0,1.32104 0.02004,1.4627 0.31039,2.19388c0.17071,0.42991 0.51154,1.07278 0.75741,1.4286c0.24586,0.35582 0.44702,0.6812 0.44702,0.72307c0,0.04187 0.06543,0.15034 0.1454,0.24105c0.20232,0.2295 0.69037,1.4882 0.69037,1.7805c0,0.98397 -1.17982,2.53295 -2.35059,3.0861c-0.59429,0.28078 -0.71086,0.29743 -2.24611,0.32083c-0.89061,0.01357 -2.00048,-0.01103 -2.46638,-0.05467l0.00003,0.00006z" id="svg_1" opacity="0.3"/>
  <path stroke="null" fill="#fff" stroke-width="0.10447" d="m55.08594,61.50831c-0.15574,-0.17208 -0.1729,-0.67958 -0.1729,-5.11158c0,-4.33393 0.01957,-4.94011 0.16417,-5.08471c0.28142,-0.28143 0.72915,-0.18785 1.63474,0.34166c0.47579,0.27821 2.22842,1.29607 3.89472,2.26191c1.66631,0.96584 3.13542,1.85118 3.2647,1.96743c0.17241,0.15503 0.23506,0.3275 0.23506,0.64708c0,0.50923 -0.08949,0.60441 -1.0447,1.11106c-0.37348,0.1981 -2.18629,1.19224 -4.02845,2.20919c-1.84217,1.01696 -3.44503,1.84901 -3.56192,1.84901c-0.11689,0 -0.29033,-0.08597 -0.38542,-0.19105zm-41.38646,-1.2098c-1.99439,-0.49418 -3.26066,-2.41666 -2.87682,-4.36766c0.33126,-1.68375 1.43161,-2.78409 3.11536,-3.11535c1.57155,-0.30919 3.30883,0.53656 4.03146,1.96261c1.1785,2.32565 -0.09443,5.0122 -2.62974,5.55014c-0.67434,0.14308 -0.96401,0.13783 -1.64026,-0.02974zm1.30797,-2.83128c0.37302,-0.1929 0.52026,-0.45016 0.52026,-0.90904c0,-0.69793 -0.62322,-1.14341 -1.29118,-0.92296c-0.88954,0.29357 -0.93384,1.53391 -0.06694,1.87406c0.36667,0.14387 0.49029,0.13767 0.83785,-0.04206l0.00001,0zm9.66142,2.72681c-1.99439,-0.49418 -3.26066,-2.41666 -2.87682,-4.36766c0.33126,-1.68375 1.4316,-2.7841 3.11536,-3.11535c1.57155,-0.30919 3.30883,0.53656 4.03146,1.96261c1.1785,2.32565 -0.09443,5.0122 -2.62974,5.55014c-0.67434,0.14308 -0.96401,0.13783 -1.64026,-0.02974zm1.61691,-2.9372c0.37082,-0.3706 0.35901,-0.9942 -0.02612,-1.37933c-0.63081,-0.63081 -1.69052,-0.19549 -1.69052,0.69446c0,0.93232 1.04992,1.35119 1.71664,0.68487zm9.35247,2.9372c-1.99438,-0.49418 -3.26065,-2.41665 -2.87681,-4.36766c0.33126,-1.68375 1.4316,-2.7841 3.11536,-3.11535c1.57155,-0.30919 3.30882,0.53656 4.03146,1.96261c1.1785,2.32565 -0.09443,5.0122 -2.62974,5.55014c-0.67434,0.14308 -0.96401,0.13783 -1.64027,-0.02974zm1.2834,-2.68131c0.889,-0.30991 0.85895,-1.57935 -0.04445,-1.8775c-0.66796,-0.22045 -1.29118,0.22503 -1.29118,0.92296c0,0.45007 0.14431,0.71157 0.49886,0.90398c0.34715,0.18839 0.42748,0.19324 0.83678,0.05056l-0.00001,0zm9.79046,2.68131c-1.99438,-0.49418 -3.26065,-2.41665 -2.87681,-4.36766c0.33126,-1.68375 1.4316,-2.7841 3.11536,-3.11535c1.57155,-0.30919 3.30883,0.53656 4.03146,1.96261c1.1785,2.32565 -0.09443,5.0122 -2.62974,5.55014c-0.67434,0.14308 -0.96401,0.13783 -1.64027,-0.02974zm1.61692,-2.9372c0.37082,-0.3706 0.35901,-0.9942 -0.02612,-1.37933c-0.63081,-0.63081 -1.69052,-0.19549 -1.69052,0.69446c0,0.93232 1.04992,1.35119 1.71664,0.68487zm-40.74107,0.28966c-0.79886,-0.39907 -0.77075,-1.62152 0.04512,-1.96242c0.24458,-0.10219 0.73985,-0.15294 1.49247,-0.15294l1.12641,0l0,1.14917l0,1.14918l-1.14918,-0.00021c-0.88475,-0.00011 -1.2333,-0.0422 -1.51482,-0.18283l0,0.00005zm11.33504,-0.96619l0,-1.14917l1.15943,0l1.15943,0l-0.09899,0.57458c-0.06235,0.36187 -0.06235,0.78731 0,1.14918l0.09899,0.57458l-1.15943,0l-1.15943,0l0,-1.14917zm10.96938,0l0,-1.14917l1.14918,0l1.14917,0l0,1.14917l0,1.14918l-1.14917,0l-1.14918,0l0,-1.14918zm11.04787,0.57459c0.06235,-0.36187 0.06235,-0.78731 0,-1.14917l-0.09899,-0.57459l1.27892,0l1.27891,0l-0.10291,0.444c-0.0566,0.2442 -0.07478,0.76132 -0.0404,1.14917l0.06251,0.70518l-1.23852,0l-1.23851,0l0.09899,-0.57459zm11.10867,-0.13059c0.03439,-0.38785 0.0162,-0.90498 -0.0404,-1.14917l-0.10291,-0.444l0.95525,0.0015c0.5572,0.00097 1.06407,0.05638 1.21642,0.13315c0.23994,0.12091 0.26542,0.20282 0.31341,1.00738l0.05224,0.87576l-0.33618,0.14026c-0.19214,0.08017 -0.71837,0.14026 -1.22825,0.14026l-0.89209,0l0.06251,-0.70514zm-28.64503,-7.02014c-0.4659,-0.04364 -0.889,-0.10522 -0.94023,-0.13683c-0.05123,-0.03161 -0.56326,-0.11171 -1.13785,-0.17801c-1.63385,-0.18852 -3.40116,-0.50571 -3.56217,-0.63934c-0.12428,-0.10314 -0.14652,-2.09509 -0.14652,-13.12224c0,-8.76188 0.03526,-13.06652 0.10814,-13.20271c0.13955,-0.26075 0.55697,-0.25836 1.51115,0.0086c1.55411,0.43491 3.61435,0.66281 6.05928,0.67026c2.23028,0.0068 2.31227,-0.00042 2.76846,-0.24299c0.70889,-0.37696 1.64222,-1.36802 1.73025,-1.83725c0.13002,-0.69306 -0.0043,-1.78205 -0.26027,-2.10975c-1.04014,-1.33174 -1.35776,-1.85922 -1.90765,-3.16816c-0.2081,-0.49537 -0.24076,-0.74745 -0.23684,-1.82824c0.0041,-1.12834 0.03172,-1.31107 0.2765,-1.82823c0.41256,-0.87169 0.84961,-1.40697 1.51681,-1.85773c1.40471,-0.94903 3.16611,-1.32128 4.80177,-1.01478c1.18118,0.22133 1.894,0.56554 2.60137,1.25615c1.26496,1.23501 1.70313,3.01545 1.15262,4.68355c-0.31746,0.96192 -0.86618,1.90926 -1.49991,2.58953c-0.24873,0.26699 -0.49736,0.64278 -0.55251,0.83508c-0.16433,0.57301 -0.12663,3.07887 0.05151,3.42336c0.28138,0.54413 0.38828,0.55426 5.35107,0.50736c4.3856,-0.04145 4.60455,-0.05284 5.19561,-0.27055c0.71986,-0.26515 1.23709,-0.2911 1.41956,-0.07124c0.15804,0.19043 0.05229,1.45813 -0.14821,1.77666c-0.07233,0.11492 -0.16036,0.37348 -0.19561,0.57459c-0.03525,0.2011 -0.16057,0.90628 -0.27849,1.56705c-0.17913,1.00384 -0.21319,1.61706 -0.20705,3.72883l0.0073,2.52741l0.4062,0.62848c0.22341,0.34566 0.60359,0.77146 0.84484,0.94623c0.40039,0.29004 0.51044,0.31774 1.26208,0.31774c0.97894,0 1.22835,-0.09313 2.45179,-0.91551c0.50846,-0.34178 1.30056,-0.79561 1.76023,-1.00852c0.73331,-0.33966 0.96479,-0.39454 1.88821,-0.44765c0.9626,-0.05537 1.12685,-0.03575 1.9241,0.22975c0.76879,0.25603 0.9592,0.37405 1.61348,1.00001c1.37381,1.31433 2.14559,3.03738 1.99972,4.46451c-0.08795,0.86045 -0.49855,2.14572 -0.87427,2.73669c-0.34225,0.53832 -1.39964,1.53966 -1.79339,1.69833c-0.14609,0.05887 -0.43016,0.17898 -0.63127,0.26691c-0.57423,0.25108 -2.37271,0.29671 -3.04373,0.07724c-0.8615,-0.28179 -1.33739,-0.53648 -2.20614,-1.18071c-1.18789,-0.88089 -1.53503,-1.08454 -2.11529,-1.24089c-1.06464,-0.28686 -2.49938,-0.09003 -2.94019,0.40336c-0.67751,0.75835 -0.83769,2.18376 -0.46098,4.10235c0.6207,3.16126 0.67589,3.52242 0.59035,3.86322c-0.08381,0.33394 -0.55779,0.57661 -1.12775,0.57739c-0.24705,0.00031 -0.9193,0.07358 -1.49389,0.16276c-1.88997,0.29334 -4.99485,0.60356 -6.11151,0.61063c-1.64239,0.01039 -2.61864,-0.31041 -3.57752,-1.17559c-0.63888,-0.57645 -0.85951,-1.68888 -0.58755,-2.96245c0.06502,-0.30448 0.20606,-0.66572 0.31341,-0.80275c0.10736,-0.13704 0.19519,-0.30747 0.19519,-0.37876c0,-0.07128 0.3252,-0.53281 0.72267,-1.02562c0.39747,-0.4928 0.75666,-1.00313 0.79822,-1.13404c0.04155,-0.13092 0.15782,-0.35648 0.25838,-0.50123c0.10055,-0.14476 0.24163,-0.62754 0.3135,-1.07285c0.2983,-1.8483 -0.33732,-3.28823 -1.83159,-4.14929c-0.45148,-0.26016 -1.95302,-0.63044 -2.55423,-0.62988c-0.62269,0.00063 -2.41138,0.38811 -2.60651,0.5647c-0.10104,0.09143 -0.24399,0.16625 -0.31768,0.16625c-0.26512,0 -1.15437,0.86055 -1.49094,1.44282c-0.34219,0.59196 -0.34357,0.60003 -0.34357,2.00657c0,1.32104 0.02004,1.4627 0.31039,2.19388c0.17071,0.42991 0.51154,1.07278 0.75741,1.4286c0.24586,0.35582 0.44702,0.6812 0.44702,0.72307c0,0.04187 0.06543,0.15034 0.1454,0.24105c0.20232,0.2295 0.69037,1.4882 0.69037,1.7805c0,0.98397 -1.17982,2.53295 -2.35059,3.0861c-0.59429,0.28078 -0.71086,0.29743 -2.24611,0.32083c-0.89061,0.01357 -2.00048,-0.01103 -2.46638,-0.05467l0.00003,0.00006z" id="path10472"/>
        </g>
    </g>
</svg>
